/* XPM */
static char * 11_xpm[] = {
"16 16 37 1",
" 	c None",
".	c #F8F8F8",
"+	c #F0B080",
"@	c #F0A070",
"#	c #E8C0A0",
"$	c #E8E0D0",
"%	c #E08858",
"&	c #F85020",
"*	c #502000",
"=	c #401000",
"-	c #301000",
";	c #803800",
">	c #804010",
",	c #F86038",
"'	c #A86038",
")	c #080800",
"!	c #280000",
"~	c #F83000",
"{	c #F89060",
"]	c #F8C098",
"^	c #B87848",
"/	c #E0C0B0",
"(	c #F0E8F0",
"_	c #6898F8",
":	c #202028",
"<	c #F8C0F8",
"[	c #505858",
"}	c #000010",
"|	c #383848",
"1	c #F84010",
"2	c #304040",
"3	c #90A0F0",
"4	c #F848F8",
"5	c #A0A0A0",
"6	c #F0F8D8",
"7	c #F8D8F8",
"8	c #F8F870",
".+.@.@.@.@.+.#.$",
"%&*=--*;>,%@+.#.",
".'))))!)-*~'.{.]",
"].^)*./.(_:=*&@.",
".].;~<.[}}}|&*1@",
"$.]%>{(2:}:|(,*%",
".$.].{.3:|45.@(@",
"$.#.+@+.$.6.@@@.",
".7.].+.@.@.@.+.#",
"..$.].].+.@8@.].",
"...7.$.].#.].$..",
"....$.$.].#.$...",
".......$.7.$....",
"................",
"................",
"................"};
