/* XPM */
static char * 13_xpm[] = {
"16 16 25 1",
" 	c None",
".	c #F8F8F8",
"+	c #B0B0B0",
"@	c #F8B0F8",
"#	c #C0C0C0",
"$	c #F8C0F8",
"%	c #F0E8F0",
"&	c #D0D0D0",
"*	c #989898",
"=	c #505858",
"-	c #202028",
";	c #909088",
">	c #F848F8",
",	c #303030",
"'	c #F83830",
")	c #E8E0D0",
"!	c #808080",
"~	c #F86870",
"{	c #F8D8F8",
"]	c #F80000",
"^	c #F87880",
"/	c #F05858",
"(	c #E87878",
"_	c #F838F8",
":	c #A0A0A0",
"...+.@.#.@$.....",
"..+.%.%.&.*=....",
"...%.....#.*$...",
"..+.........*-..",
"...%.....*.;>,..",
"..+...'...).!,..",
"...%.~.'...{.,..",
"..+..'.].'~.#,..",
"...%..].]%.^.,..",
"..+....]%/(.#-..",
"...%.._.]%.{.,..",
"..+..././.&.:,..",
"...%.../.{.&.,..",
"..+.%.).&.#.:,..",
"...$.#.@.+.:.,..",
"..=,,,,,,,,,,,.."};
