/* XPM */
static char * 16_xpm[] = {
"16 16 45 1",
" 	c None",
".	c #F8F8F8",
"+	c #F0B080",
"@	c #F0A070",
"#	c #E08858",
"$	c #F85020",
"%	c #502000",
"&	c #301000",
"*	c #803800",
"=	c #804010",
"-	c #F86038",
";	c #F8C098",
">	c #A86038",
",	c #280000",
"'	c #000000",
")	c #080800",
"!	c #F83000",
"~	c #F89060",
"{	c #E8C0A0",
"]	c #B87848",
"^	c #E0C0B0",
"/	c #F0E8F0",
"(	c #6898F8",
"_	c #202028",
":	c #401000",
"<	c #F8C0F8",
"[	c #505858",
"}	c #000010",
"|	c #383848",
"1	c #F84010",
"2	c #90A0F0",
"3	c #304040",
"4	c #F848F8",
"5	c #A0A0A0",
"6	c #E8E0D0",
"7	c #101010",
"8	c #F8D8F8",
"9	c #202018",
"0	c #785840",
"a	c #F83830",
"b	c #806040",
"c	c #C0C0C0",
"d	c #808080",
"e	c #B0B0B0",
"f	c #404040",
".+.@.@.@.@.+....",
"#$%&&&%*=-#@+.;.",
".>,')),)&%!>.~.{",
"{.])%.^./(_:%$@.",
".{.*!<.[}}}|$%1@",
"..{#=~/|_}_|/-%#",
"...;.~.2_345.@/@",
"....;@+.6./.@@+.",
".78_8_9049a]<98{",
"_.9.7..._.7b_.7.",
".c.<).7.7..7..7.",
"}_.7_...9.d.d.).",
".<.e9.7.7.)d9.7.",
"_.7.7..._.7f_.7.",
".747477f.74..74.",
"................"};
