/* XPM */
static char * 17_xpm[] = {
"16 16 34 1",
" 	c None",
".	c #F8F8F8",
"+	c #989898",
"@	c #F8D8F8",
"#	c #F0E8F0",
"$	c #B0B0B0",
"%	c #606060",
"&	c #C0C0C0",
"*	c #F8B0F8",
"=	c #505858",
"-	c #E8E0D0",
";	c #909088",
">	c #F89060",
",	c #F8D0B8",
"'	c #A0A0A0",
")	c #F8B0A8",
"!	c #404040",
"~	c #505048",
"{	c #F898F8",
"]	c #B8A870",
"^	c #403008",
"/	c #584830",
"(	c #808080",
"_	c #707070",
":	c #303030",
"<	c #90B0F0",
"[	c #483020",
"}	c #E82020",
"|	c #686830",
"1	c #202018",
"2	c #202028",
"3	c #F880F8",
"4	c #F848F8",
"5	c #383848",
"...+.+.+.+@.....",
"..+.#.#.#.$%....",
"...#.....&.*@...",
"..+.........$=..",
"...#.....+@%@=..",
"..+.......-.;=..",
"...#.......@.=..",
"..+.......#>+=..",
"...#.,#'.)#!.~..",
"..+{$.,.]!^/(=..",
"..._:$.<.[}%.=..",
"..+~_/|~[123$~..",
"...#.~214/.$.=..",
"..+.#.(=%3'.5=..",
"...#.&.$.'.(.=..",
".._=========~=.."};
