/* XPM */
static char * 19_xpm[] = {
"16 16 40 1",
" 	c None",
".	c #F8F8F8",
"+	c #989898",
"@	c #F8D8F8",
"#	c #F0E8F0",
"$	c #B0B0B0",
"%	c #606060",
"&	c #C0C0C0",
"*	c #F8B0F8",
"=	c #505858",
"-	c #E8E0D0",
";	c #909088",
">	c #6898F8",
",	c #F8C0F8",
"'	c #90B0F0",
")	c #2070F0",
"!	c #0850F8",
"~	c #58E8F8",
"{	c #98A0C8",
"]	c #90A0F0",
"^	c #6088F0",
"/	c #2868E0",
"(	c #0040F8",
"_	c #003898",
":	c #C0D0B0",
"<	c #689080",
"[	c #18C8F8",
"}	c #1040A8",
"|	c #1038F8",
"1	c #78C878",
"2	c #589040",
"3	c #3050C0",
"4	c #0028F8",
"5	c #404860",
"6	c #D0D0D0",
"7	c #80B070",
"8	c #487828",
"9	c #404040",
"0	c #707070",
"a	c #505048",
"...+.+.+.+@.....",
"..+.#.#.#.$%....",
"...#.#...&.*@...",
"..+.........$=..",
"...#.....+@%@=..",
"..+.......-.;=..",
"...#...@.>.,.=..",
"..+...'.'>)!$=..",
"...#.@.#.>~!#=..",
"..+...{.]^/(_=..",
"...#.:.<.)[}|=..",
"..+.:.123!}45=..",
"...6.7.8|}|5,=..",
"..+.728955=%%=..",
"...@.;#0#0@0.=..",
"..0=a=a=a9aaa=.."};
