/* XPM */
static char * 20_xpm[] = {
"16 16 25 1",
" 	c None",
".	c #F8F8F8",
"+	c #F0E8F0",
"@	c #808080",
"#	c #F8C0F8",
"$	c #000000",
"%	c #E8E0D0",
"&	c #989898",
"*	c #B0B0B0",
"=	c #F8D8F8",
"-	c #909088",
";	c #C0C0C0",
">	c #505858",
",	c #303030",
"'	c #F8A0F8",
")	c #606060",
"!	c #B8A898",
"~	c #F8F870",
"{	c #B8A870",
"]	c #906870",
"^	c #202028",
"/	c #F0B080",
"(	c #404040",
"_	c #383848",
":	c #F880F8",
"..+@+@+@+@+@....",
"..@.........@...",
"..+........#.@..",
"..@........$$$$.",
"..+..........#$.",
"%.@.......%...$.",
".&.*=-.#.;.+.;$.",
">,>>-'>)!~{...$.",
".].;.),^+/+;.#$.",
".(_(,(>.;:@...$.",
"...#.;.=...=.;$.",
"..@...........$.",
"..+..........#$.",
"..@...........$.",
"..+#.*.#.*.#.*$.",
"..$$$$$$$$$$$$$."};
