/* XPM */
static char * 23_xpm[] = {
"16 16 43 1",
" 	c None",
".	c #F8F8F8",
"+	c #6088F0",
"@	c #3850F8",
"#	c #3050A0",
"$	c #78C028",
"%	c #F848F8",
"&	c #88E068",
"*	c #5838F8",
"=	c #989898",
"-	c #909088",
";	c #808080",
">	c #F880F8",
",	c #F0F8D8",
"'	c #2868E0",
")	c #F0E8F0",
"!	c #505858",
"~	c #E8F0C8",
"{	c #F8D8F8",
"]	c #B0F878",
"^	c #50B8F0",
"/	c #0000F8",
"(	c #E0F890",
"_	c #90D0F0",
":	c #E8E0D0",
"<	c #6898F8",
"[	c #48F848",
"}	c #58C8F8",
"|	c #4868F8",
"1	c #28F8F8",
"2	c #2060A0",
"3	c #404860",
"4	c #50F8F8",
"5	c #F838F8",
"6	c #30A0F8",
"7	c #2070F0",
"8	c #1840F8",
"9	c #3050C0",
"0	c #3068D0",
"a	c #405090",
"b	c #707070",
"c	c #303030",
"d	c #103040",
".....+..........",
"...@#.....$.....",
"..%@.&.....*....",
"=-;>-;-...,.'...",
"...).;.!...~{...",
"-....>!!].~.^@..",
".).//..!.(._.#..",
"-.....:!<[_.}|..",
".)1///.!.^._.2..",
"-.....:3+4_4'...",
".).///.!56.78...",
";...).:!970@....",
".).).{.!5a8.....",
"bcccccccd.......",
"................",
"................"};
