/* XPM */
static char * 25_xpm[] = {
"16 16 30 1",
" 	c None",
".	c #F8F8F8",
"+	c #909088",
"@	c #F0E8F0",
"#	c #606060",
"$	c #F8C0F8",
"%	c #505048",
"&	c #F8D8F8",
"*	c #808080",
"=	c #A0A0A0",
"-	c #F8A0F8",
";	c #8898C8",
">	c #3878C8",
",	c #0850F8",
"'	c #003898",
")	c #1038F8",
"!	c #70A0F8",
"~	c #C8E0F8",
"{	c #C8D0E8",
"]	c #58C8F8",
"^	c #90D0F0",
"/	c #1040A8",
"(	c #90C0F8",
"_	c #1080F0",
":	c #0040F8",
"<	c #6088F0",
"[	c #3090F8",
"}	c #00F0F8",
"|	c #10D0F8",
"1	c #0050C0",
".....+@#$%&.....",
"........*#......",
".......=&.......",
".....-;-........",
".......>........",
"...-..@.>,')....",
"...!.@.@.~.'....",
"...-..@.{.])....",
"...;.@.~.^./....",
"...!..~.(._:....",
"...<.(.[},|:....",
"..._1,1-1,1,....",
".......=&.......",
"........+#......",
".....+@#$%&.....",
"................"};
