/* XPM */
static char * 28_xpm[] = {
"16 16 29 1",
" 	c None",
".	c #F8F8F8",
"+	c #909088",
"@	c #808080",
"#	c #505858",
"$	c #F880F8",
"%	c #B0B0B0",
"&	c #303030",
"*	c #F8B0F8",
"=	c #F848F8",
"-	c #F8C0F8",
";	c #F0E8F0",
">	c #989898",
",	c #F0F8D8",
"'	c #E8F0C8",
")	c #F898F8",
"!	c #404040",
"~	c #F8E090",
"{	c #E89000",
"]	c #F8D8F8",
"^	c #E88000",
"/	c #C0C0C0",
"(	c #304040",
"_	c #F0E0A0",
":	c #F87000",
"<	c #E8E0D0",
"[	c #D0D0D0",
"}	c #A0A0A0",
"|	c #F838F8",
".....+.@.#......",
".....$%.+&......",
"...*.+.*=+-.....",
"..%.;.%#>.%#....",
"...;...%.*.%-...",
"..%.,.'..)+@#!..",
"...;.~.{...].!..",
"..%.,.~^'.../(..",
"...;..._.^.;.!..",
"../....{^:;.%!..",
"...;...;.].].!..",
"../.<.[$[./.}!..",
"..;#-#.%|#-#-!..",
".....$<.+&......",
".....#-#-!......",
"................"};
