/* XPM */
static char * 29_xpm[] = {
"16 16 55 1",
" 	c None",
".	c #F8F8F8",
"+	c #18E0F8",
"@	c #3888A8",
"#	c #28F8F8",
"$	c #488088",
"%	c #0860F8",
"&	c #18A0C8",
"*	c #18C8F8",
"=	c #80F8F8",
"-	c #90D0F0",
";	c #2070F0",
">	c #107890",
",	c #F80000",
"'	c #280000",
")	c #000000",
"!	c #184050",
"~	c #10D0F8",
"{	c #803800",
"]	c #F8F800",
"^	c #F0D000",
"/	c #882000",
"(	c #70B0F0",
"_	c #30A0F8",
":	c #1878A0",
"<	c #F8E800",
"[	c #F0A000",
"}	c #F8C000",
"|	c #F83000",
"1	c #A09000",
"2	c #E89000",
"3	c #886000",
"4	c #502000",
"5	c #F0E848",
"6	c #F0B800",
"7	c #80A000",
"8	c #F82800",
"9	c #F8F870",
"0	c #103800",
"a	c #A07000",
"b	c #804010",
"c	c #080800",
"d	c #F8F818",
"e	c #003030",
"f	c #58E8F8",
"g	c #1080F0",
"h	c #086890",
"i	c #0850F8",
"j	c #085068",
"k	c #106080",
"l	c #285060",
"m	c #184850",
"n	c #3090F8",
"o	c #70A0F8",
"p	c #F898F8",
"....+@#@.$......",
"...%&#*=-..$$;>.",
"..,''))))!...~#.",
"{]^]^]^]/.$.(_:.",
"]<][]}]]|..)))..",
"1]]23]4]{...5...",
"]6]7^]}<8..)))..",
"13)''')]{...9...",
"][]1]^,^|.......",
"1]]70]a]/..)))..",
"]b)')))]8..cde..",
"a]]]]]]]....fgh.",
"...&.....=i)*c..",
"....j;klmj..1...",
".............n..",
"........mo!.fgmp"};
