/* XPM */
static char * 30_xpm[] = {
"16 16 29 1",
" 	c None",
".	c #F8F8F8",
"+	c #606060",
"@	c #404040",
"#	c #E8E0D0",
"$	c #404860",
"%	c #A0A0A0",
"&	c #303030",
"*	c #383848",
"=	c #F870F8",
"-	c #707070",
";	c #F898F8",
">	c #989898",
",	c #F880F8",
"'	c #808080",
")	c #F8D8F8",
"!	c #F8C0F8",
"~	c #D0D0D0",
"{	c #F8B0F8",
"]	c #F838F8",
"^	c #505858",
"/	c #A888A8",
"(	c #C0C0C0",
"_	c #B0B0B0",
":	c #909088",
"<	c #F0E8F0",
"[	c #505048",
"}	c #F8A0F8",
"|	c #F848F8",
"................",
"......+++.......",
".....+...@......",
"....+.@@@.@.....",
"...+.@...@.@....",
"...+#$...@%&....",
"...+.@...@.*....",
"..+=-;>,''++@...",
"..)%.!.~.{.']...",
"..^;-;~;'+@^*...",
"..)/.(._.:<+&...",
"..[;-}#;-+[^*...",
"..|:)>.:<^|^]...",
"..@&@@@@&@&@&...",
"................",
"................"};
