/* XPM */
static char * 31_xpm[] = {
"16 16 14 1",
" 	c None",
".	c #F8F8F8",
"+	c #C0C0C0",
"@	c #F8B0F8",
"#	c #B0B0B0",
"$	c #F0E8F0",
"%	c #989898",
"&	c #A0A0A0",
"*	c #909088",
"=	c #0000F8",
"-	c #E8E0D0",
";	c #F8D8F8",
">	c #D0D0D0",
",	c #F8C0F8",
"...+.@.#.@......",
"..#.$.$.$.%.....",
"...$.....+.%....",
"..#.........%...",
"...$.....&.*$...",
"..#..===..-.%...",
"...$.......;....",
"..#..=====$.+...",
"...$.....$.$....",
"..#..=====-.+...",
"...$.....$.;....",
"..#..=====>.#...",
"...$...$.;.>....",
"..#.$.-.>.>.&...",
"...;.+.,.#.&....",
"................"};
