/* XPM */
static char * 32_xpm[] = {
"16 16 14 1",
" 	c None",
".	c #F8F8F8",
"+	c #F0E8F0",
"@	c #808080",
"#	c #C0C0C0",
"$	c #F8C0F8",
"%	c #707070",
"&	c #F880F8",
"*	c #F8B0F8",
"=	c #000080",
"-	c #800080",
";	c #B0B0B0",
">	c #F800F8",
",	c #0000F8",
"..+@+@+@+@+@+@..",
"..@.............",
"..+..#.$.#.$.#..",
"..@.#@%.@@%&#...",
"..+..*.#.$.#.$..",
"..@.#&@.....#...",
"..+..#.$.#.$.#..",
"..@.#@%.....#...",
"..+..$.#.$.=.$..",
"..@.#&@...-=;...",
"..+..;.$..>=.#..",
"..@.#@@.,,-,#...",
"..+..$.#.$.#.$..",
"..@.............",
"..+$.#.$.#.$.#..",
"................"};
