/* XPM */
static char * 33_xpm[] = {
"16 16 6 1",
" 	c None",
".	c #F8F8F8",
"+	c #F0E8F0",
"@	c #808080",
"#	c #C0C0C0",
"$	c #F8C0F8",
"..+@+@+@+@+@+@..",
"..@.............",
"..+..#.$.#.$.#..",
"..@.............",
"..+..........$..",
"..@.......#.....",
"..+..........#..",
"..@.............",
"..+..........$..",
"..@.......#.....",
"..+..........#..",
"..@.............",
"..+..$.#.$.#.$..",
"..@.............",
"..+$.#.$.#.$.#..",
"................"};
