/* XPM */
static char * 34_xpm[] = {
"16 16 12 1",
" 	c None",
".	c #F8F8F8",
"+	c #F0E8F0",
"@	c #808080",
"#	c #F8C0F8",
"$	c #C0C0C0",
"%	c #800000",
"&	c #800080",
"*	c #0000F8",
"=	c #F80000",
"-	c #F800F8",
";	c #F880F8",
"..+@+@+@+@+@+@..",
"..@.............",
"..+#.$.#.$.#.$..",
"..@.............",
"..+..........#..",
"..@...%%%..&....",
"..+....#..*&.$..",
"..@...%=$*.-....",
"..+..#.$.#.$.#..",
"..@.............",
"..+....#.$...$..",
"..@....;.@......",
"..+..........#..",
"..@.............",
"..+#.$.#.$.#.$..",
"................"};
