/* XPM */
static char * 37_xpm[] = {
"16 16 56 1",
" 	c None",
".	c #F8F8F8",
"+	c #989898",
"@	c #F8D8F8",
"#	c #F0E8F0",
"$	c #B0B0B0",
"%	c #606060",
"&	c #C0C0C0",
"*	c #F8B0F8",
"=	c #505858",
"-	c #707070",
";	c #E8E0D0",
">	c #808080",
",	c #505048",
"'	c #F8F8A0",
")	c #989070",
"!	c #F0E848",
"~	c #F8A840",
"{	c #F848F8",
"]	c #907830",
"^	c #F8F818",
"/	c #B08008",
"(	c #E8C0A0",
"_	c #E8D088",
":	c #888040",
"<	c #584830",
"[	c #F8D018",
"}	c #F8F800",
"|	c #886000",
"1	c #080800",
"2	c #585000",
"3	c #F87000",
"4	c #987870",
"5	c #F8E828",
"6	c #403008",
"7	c #F83000",
"8	c #F0A000",
"9	c #A05000",
"0	c #280000",
"a	c #502000",
"b	c #C8C080",
"c	c #F0A070",
"d	c #706848",
"e	c #E0A018",
"f	c #F8C000",
"g	c #401000",
"h	c #E88000",
"i	c #804010",
"j	c #483020",
"k	c #F8E800",
"l	c #F81000",
"m	c #A07000",
"n	c #682800",
"o	c #D0D0D0",
"p	c #A0A0A0",
"q	c #F8C0F8",
"...+.+.+.+@.....",
"..+.#.#.#.$%....",
"...#.$...&.*@...",
"..+.$.$.....$=..",
"...#.#.$.+@-@=..",
"..+.$.....;.>=..",
"...#.$.$.#.@.=..",
"..+.....#.;.&,..",
"...'.).!.~{]^/..",
"..(._.:<[}|123..",
"...4.5^678}90a..",
"..bcdef8gg/hi0..",
"...!.jk8kglmkn..",
"..+.o.&.&.$.p=..",
"..@=q=q=q=q=q=..",
"................"};
