/* XPM */
static char * 39_xpm[] = {
"16 16 14 1",
" 	c None",
".	c #F8F8F8",
"+	c #F898F8",
"@	c #906870",
"#	c #F86870",
"$	c #989898",
"%	c #F8D8F8",
"&	c #A01848",
"*	c #F818F8",
"=	c #F81848",
"-	c #F8A0F8",
";	c #986080",
">	c #A0A0A0",
",	c #F870F8",
"................",
"................",
"................",
".......+@#$.....",
"......%&*&*&....",
".......=&=&+.-..",
".......;*&*..$.>",
".......=&=&+>+>.",
".......;*&*@.$..",
"...=&+.#&=&#@->+",
"...&*&.&*&*@%$..",
"...=&=&=&=@,@->.",
"....*&*&*&%@%$..",
".....-$#@,@#>+>.",
".......>.@.@.$..",
"......>+$-$-$.>."};
