/* XPM */
static char * 41_xpm[] = {
"16 16 28 1",
" 	c None",
".	c #F8F8F8",
"+	c #F0E8F0",
"@	c #808080",
"#	c #F8C0F8",
"$	c #000000",
"%	c #F8D8F8",
"&	c #101010",
"*	c #303030",
"=	c #F820F8",
"-	c #E8E0D0",
";	c #505858",
">	c #000010",
",	c #505048",
"'	c #F898F8",
")	c #202028",
"!	c #080800",
"~	c #B0B0B0",
"{	c #D0D0D0",
"]	c #C0C0C0",
"^	c #909088",
"/	c #989898",
"(	c #F848F8",
"_	c #707070",
":	c #F880F8",
"<	c #606060",
"[	c #404040",
"}	c #383848",
"..+@+@+@+@+@....",
"..@.........@...",
"..+........#.@..",
"..@........$$$$.",
"..+..%&*=*...#$.",
"..@.-.;.;>,'..$.",
"..+..%.#+)&!.~$.",
"..@.-.{.].,>^.$.",
"..+%.#%*./(>%#$.",
"..@.].;)_:,&*.$.",
"...#./.&+<%[+~$.",
"..@.]'@'<;}&^.$.",
"..+..<%;([)<.#$.",
"..@.../}*}....$.",
"..+#.~.#.~.#.~$.",
"..$$$$$$$$$$$$$."};
