/* XPM */
static char * 46_xpm[] = {
"16 16 13 1",
" 	c None",
".	c #F8F8F8",
"+	c #F0E8F0",
"@	c #808080",
"#	c #F8C0F8",
"$	c #000000",
"%	c #E88000",
"&	c #808000",
"*	c #F8F800",
"=	c #C0C0C0",
"-	c #F880F8",
";	c #707070",
">	c #B0B0B0",
"..+@+@+@+@+@....",
"..@.........@...",
"..+........#.@..",
"..@........$$$$.",
"..+..........#$.",
"..@..%&$......$.",
"..+..$*&$....=$.",
"..@.&*$-;$....$.",
"..+..$.$.@$..#$.",
"..@...@.$-;$..$.",
"..+....$.=$..=$.",
"..@.....$$....$.",
"..+..........#$.",
"..@...........$.",
"..+#.>.#.>.#.>$.",
"..$$$$$$$$$$$$$."};
