/* XPM */
static char * 49_xpm[] = {
"16 16 30 1",
" 	c None",
".	c #F8F8F8",
"+	c #F0E8F0",
"@	c #808080",
"#	c #F8C0F8",
"$	c #000000",
"%	c #F8D8F8",
"&	c #C0C0C0",
"*	c #989898",
"=	c #F870F8",
"-	c #404040",
";	c #303030",
">	c #909088",
",	c #504018",
"'	c #E88000",
")	c #B08008",
"!	c #F85000",
"~	c #F8F800",
"{	c #585000",
"]	c #080800",
"^	c #101010",
"/	c #E89000",
"(	c #707070",
"_	c #F84010",
":	c #F87000",
"<	c #F8F818",
"[	c #484000",
"}	c #F838F8",
"|	c #F880F8",
"1	c #B0B0B0",
"..+@+@+@+@+@....",
"..@.........@...",
"..+........#.@..",
"..@........$$$$.",
"..+..%.&.....#$.",
"..@.*=-;@.....$.",
"..+>+,$@.....&$.",
"..*=;')!@.....$.",
"..#;$@!'~{+..#$.",
"..]^@..@{'/{(.$.",
"..+@.....@_:<[}.",
"..@........|[:$.",
"..+..........#$.",
"..@...........$.",
"..+#.1.#.1.#.1$.",
"..$$$$$$$$$$$$$."};
