/* XPM */
static char * 50_xpm[] = {
"16 16 37 1",
" 	c None",
".	c #F8F8F8",
"+	c #005880",
"@	c #004870",
"#	c #10D0F8",
"$	c #1878A0",
"%	c #0850F8",
"&	c #086890",
"*	c #3090F8",
"=	c #4888C0",
"-	c #1080F0",
";	c #2070F0",
">	c #18E0F8",
",	c #68A8C8",
"'	c #70B0F0",
")	c #00F0F8",
"!	c #18C8F8",
"~	c #88B8D0",
"{	c #80F8F8",
"]	c #A0C0D0",
"^	c #0860F8",
"/	c #085068",
"(	c #90C0F8",
"_	c #6088F0",
":	c #0040F8",
"<	c #6898F8",
"[	c #28F8F8",
"}	c #106080",
"|	c #103040",
"1	c #083850",
"2	c #407080",
"3	c #90D0F0",
"4	c #488088",
"5	c #A0A0A0",
"6	c #F0E8F0",
"7	c #184850",
"8	c #F8B0F8",
"................",
".......++.......",
".....@#$#@......",
"...%&*=-$;@.....",
".@>,.'.=)&!@....",
"@.~{].,*$^&+/...",
"%@.(.,._)&#+:@..",
"@^@.~<=-$^&%/@@.",
":@#@.([$>}#+:|..",
".1@^@.~^&%@2....",
"..:/#@.3%4...5:.",
"...1@^@^..6.71..",
"....:@:6.8!1....",
".....11.21......",
"......:1........",
"................"};
