/* XPM */
static char * 45_xpm[] = {
"16 16 40 1",
" 	c None",
".	c #F8F8F8",
"+	c #989898",
"@	c #E8E0D0",
"#	c #B0B0B0",
"$	c #D0D0D0",
"%	c #F898F8",
"&	c #505858",
"*	c #A0A0A0",
"=	c #C0C0C0",
"-	c #707070",
";	c #606060",
">	c #909088",
",	c #F870F8",
"'	c #808080",
")	c #F848F8",
"!	c #505048",
"~	c #404040",
"{	c #304040",
"]	c #F838F8",
"^	c #F8B0F8",
"/	c #18E0F8",
"(	c #28C850",
"_	c #20E838",
":	c #388048",
"<	c #F8C0F8",
"[	c #F8A0F8",
"}	c #18A038",
"|	c #48F848",
"1	c #F880F8",
"2	c #18F838",
"3	c #28F8F8",
"4	c #30A050",
"5	c #303030",
"6	c #208838",
"7	c #289048",
"8	c #305838",
"9	c #286030",
"0	c #407050",
"a	c #30D030",
".......+........",
"......@.#.$%&...",
".......#.*.*.=..",
"......-;->-,''$.",
"......)!.-~.....",
".........,{.....",
".........-].....",
".........-{.....",
".^....../(_:.<..",
"=%&[....}.}|=1&'",
"...&.*.*2(34<...",
"...5~5~56267!...",
".-)~..../}_:]~<~",
".~5.....8790.~5.",
"........a:<0....",
"........8:80...."};
