/* XPM */
static char * 4_xpm[] = {
"16 16 8 1",
" 	c None",
".	c #F8F8F8",
"+	c #F0E8F0",
"@	c #808080",
"#	c #F8C0F8",
"$	c #000000",
"%	c #C0C0C0",
"&	c #B0B0B0",
"..+@+@+@+@+@....",
"..@.........@...",
"..+........#.@..",
"..@........$$$$.",
"..+..........#$.",
"..@...........$.",
"..+..........%$.",
"..@...........$.",
"..+..........#$.",
"..@...........$.",
"..+..........%$.",
"..@...........$.",
"..+..........#$.",
"..@...........$.",
"..+#.&.#.&.#.&$.",
"..$$$$$$$$$$$$$."};
