/* XPM */
static char * 9_xpm[] = {
"16 16 52 1",
" 	c None",
".	c #F8F8F8",
"+	c #F0B080",
"@	c #F0A070",
"#	c #E0C0B0",
"$	c #E08858",
"%	c #F85020",
"&	c #502000",
"*	c #401000",
"=	c #301000",
"-	c #682800",
";	c #804010",
">	c #F86038",
",	c #E8C0A0",
"'	c #A86038",
")	c #080800",
"!	c #280000",
"~	c #F83000",
"{	c #F89060",
"]	c #B87848",
"^	c #F0E8F0",
"/	c #6898F8",
"(	c #202028",
"_	c #803800",
":	c #F8C0F8",
"<	c #404860",
"[	c #000010",
"}	c #383848",
"|	c #F84010",
"1	c #F0F8D8",
"2	c #C0C0C0",
"3	c #F8C098",
"4	c #90A0F0",
"5	c #304040",
"6	c #F848F8",
"7	c #A0A0A0",
"8	c #E8E0D0",
"9	c #584830",
"0	c #F83830",
"a	c #806848",
"b	c #F8C828",
"c	c #785840",
"d	c #483020",
"e	c #806040",
"f	c #F8D8F8",
"g	c #403008",
"h	c #F83020",
"i	c #F8D040",
"j	c #B8A898",
"k	c #202018",
"l	c #F838F8",
"m	c #504018",
".+.@.@.@.@.+.#..",
"$%&*==--;>$@+.,.",
".'))))!)=&~'.{.,",
",.])&.#.^/(*&%@.",
".,._~:.<[[[}|-|@",
"..,$;{1}([(}^>&$",
".2.3.{.4(567.@^@",
"..,.,@@.8.^.@@+.",
".90a.9.@.9b96a.,",
"9...c.9.9.d...e.",
"0.f.g..9..h.i.h.",
"9...e.j.j.d...d.",
"6.i.h.kjl.d.hd..",
"9...c.md9.k.d...",
".dhd.9...9.9k...",
"................"};
