/* XPM */
static char * 35_xpm[] = {
"16 16 10 1",
" 	c None",
".	c #F8F8F8",
"+	c #F0E8F0",
"@	c #808080",
"#	c #F8C0F8",
"$	c #C0C0C0",
"%	c #000000",
"&	c #080800",
"*	c #B0B0B0",
"=	c #000010",
"..+@+@+@+@+@....",
"..@.........@...",
"..+........#.@..",
"..@.$.$.$..%%%%.",
"..+..........#&.",
"..@.$.$.$.....&.",
"..+..........$&.",
"..@.$.$.$.$...&.",
"..+..%%...&%.#&.",
"..@.%.$%*%$.%.&.",
"..+.%....%...$&.",
"..@.%.$%$%$.%.=.",
"..+..%%...&%.#&.",
"..@...........&.",
"..+#.$.#.$.#.$&.",
"..&&=&&=&&=&&=&."};
