/* XPM */
static char * 44_xpm[] = {
"16 16 5 1",
" 	c None",
".	c #F8F8F8",
"+	c #000080",
"@	c #0000F8",
"#	c #000000",
"................",
"................",
"................",
".++@+++@+++@+++.",
".+@+@+@+@+@+@+@.",
".@+++@+++@+++@+.",
".+............@.",
".#............#.",
".#............#.",
".#............#.",
".#............#.",
".#............#.",
".#............#.",
".#............#.",
".##############.",
"................"};
