/* XPM */
static char * 48_xpm[] = {
"16 16 43 1",
" 	c None",
".	c #F8F8F8",
"+	c #F8D8F8",
"@	c #C0C0C0",
"#	c #F8B0F8",
"$	c #B0B0B0",
"%	c #A0A0A0",
"&	c #F0E8F0",
"*	c #E8E0D0",
"=	c #D0D0D0",
"-	c #F880F8",
";	c #0028F8",
">	c #082868",
",	c #1038F8",
"'	c #003898",
")	c #1040A8",
"!	c #707070",
"~	c #4888C0",
"{	c #3850F8",
"]	c #1840F8",
"^	c #0050C0",
"/	c #4868F8",
"(	c #606060",
"_	c #8888F8",
":	c #0040F8",
"<	c #50B8F0",
"[	c #5878F8",
"}	c #0850F8",
"|	c #3050C0",
"1	c #909088",
"2	c #58C8F8",
"3	c #3068D0",
"4	c #989898",
"5	c #808080",
"6	c #505048",
"7	c #383848",
"8	c #303030",
"9	c #F8C0F8",
"0	c #00F800",
"a	c #F898F8",
"b	c #505858",
"c	c #F838F8",
"d	c #404040",
"..+@.#.$.%.%....",
"..@.&.*.=.=.@-..",
"...&;>;>,',).!..",
"..$.>.~{)]^/%(..",
"...&;_:)]{<[.(..",
"..$.>})]^{|_1(..",
"...+;)]]2|+_.(..",
"..%.']|/3[_.1(..",
"...@.4.5.!&(+(..",
"....67888788....",
"...+.&.+.@.9&...",
"....*04a888b6...",
"...$.%.5&(+6c...",
"...a(((b6dd88...",
"................",
"................"};
