/* XPM */
static char * 3_xpm[] = {
"16 16 8 1",
" 	c None",
".	c #F8F8F8",
"+	c #808080",
"@	c #F880F8",
"#	c #F8F800",
"$	c #707070",
"%	c #F80000",
"&	c #F0E8F0",
"................",
"..+++@+.........",
".+.#.#.$........",
"+.#.#.%%+++@+$..",
"&.....%%.....+..",
"+.#.#.%%#.#.#@..",
"&..#.#%%.#.#.+..",
"+.#.#.%%#.#.#$..",
"&..#.#%%.#.#.+..",
"+.#.#.%%#.#.#@..",
"&..#.#.#.#.#.+..",
"+.#.#.%%#.#.#+..",
"&+&+&+%%&+&+&+..",
"................",
"................",
"................"};
