/* XPM */
static char * 1_xpm[] = {
"16 16 7 1",
" 	c None",
".	c #F8F8F8",
"+	c #808080",
"@	c #F880F8",
"#	c #707070",
"$	c #F8F800",
"%	c #F0E8F0",
"................",
"..+++@#.........",
".+.$.$.+........",
"+.$.$.$.+++@+#..",
"%............+..",
"+.$.$.$.$.$.$@..",
"%..$.$.$.$.$.+..",
"+.$.$.$.$.$.$#..",
"%..$.$.$.$.$.+..",
"+.$.$.$.$.$.$@..",
"%..$.$.$.$.$.+..",
"+.$.$.$.$.$.$+..",
"%+%+%+%+%+%+%+..",
"................",
"................",
"................"};
