/* XPM */
static char * 53_xpm[] = {
"16 16 10 1",
" 	c None",
".	c #F8F8F8",
"+	c #800000",
"@	c #F8F800",
"#	c #F80000",
"$	c #000000",
"%	c #808080",
"&	c #B0B0B0",
"*	c #C0C0C0",
"=	c #707070",
"................",
".......+.+......",
".......+++......",
"......@+#+......",
".....@$+#+$.....",
"....@$+###+$....",
"...@$%$+#+&*$...",
"..@$=$**+**$=$..",
".@$%$&*&*&$%@@..",
".@$$*****$=%%$@.",
"..$=%=*&$%@@$.@.",
"...$%%*$=%%$@.@.",
"....$=$%@@$.@...",
".....$%$=$@.@...",
"......$$$.@.....",
".......$..@....."};
