/* XPM */
static char * 10_xpm[] = {
"16 16 48 1",
" 	c None",
".	c #F8F8F8",
"+	c #F0B080",
"@	c #F0A070",
"#	c #E08858",
"$	c #F85020",
"%	c #502000",
"&	c #301000",
"*	c #682800",
"=	c #804010",
"-	c #F86038",
";	c #E8C0A0",
">	c #A86038",
",	c #080800",
"'	c #280000",
")	c #F83000",
"!	c #F89060",
"~	c #B87848",
"{	c #C0C0C0",
"]	c #F0E8F0",
"^	c #6898F8",
"/	c #202028",
"(	c #401000",
"_	c #803800",
":	c #F8C0F8",
"<	c #505858",
"[	c #000010",
"}	c #383848",
"|	c #F84010",
"1	c #F0F8D8",
"2	c #F8C098",
"3	c #90A0F0",
"4	c #F848F8",
"5	c #A0A0A0",
"6	c #E8E0D0",
"7	c #608860",
"8	c #00D000",
"9	c #006000",
"0	c #80A048",
"a	c #589040",
"b	c #487828",
"c	c #C0D0B0",
"d	c #004000",
"e	c #103800",
"f	c #78C878",
"g	c #286030",
"h	c #80B070",
"i	c #20E838",
".+.@.@.@.@.+....",
"#$%&&&**=-#@+.;.",
".>,,,','&%)>.!.;",
";.~,%.{.]^/(%$@.",
".;._):.<[[[}|%|@",
"..;#=!1}/[/}]-%#",
"...2.!.3/}45.@]@",
"....;@@.6.1.@@+.",
".789.08a898b.2.;",
"7...c9.d...d2.;.",
"8.ded9.d.ed7....",
"9.d..d.d..fg....",
"8.de.d.e.dd.....",
"7...hd.d.e......",
".7dei7dg9g......",
"................"};
