/* XPM */
static char * 51_xpm[] = {
"16 16 16 1",
" 	c None",
".	c #F8F8F8",
"+	c #800080",
"@	c #000000",
"#	c #707070",
"$	c #F0E8F0",
"%	c #F800F8",
"&	c #808080",
"*	c #F8F800",
"=	c #F8E800",
"-	c #808000",
";	c #F8C0F8",
">	c #E88000",
",	c #F880F8",
"'	c #C0C0C0",
")	c #B0B0B0",
".......+@.......",
"......+#+@@.....",
".....+$+%+%@@...",
"....+&+%+++%+@@.",
"...+$+%***=+%+@.",
"..+&+%--+**++@@.",
".+$+%+%;**%+@#@.",
"+#+%++*>+++@#.@@",
"%@@+%+%+%+@&.;%@",
"+,&@@%+++@#.'%@.",
"%&.&$@@+@&.;%@..",
"@&)..&&@#.'%@...",
".@@&...&.;%@....",
"...@@,'.'%@.....",
".....@@#%@......",
".......@@......."};
