/* XPM */
static char * 52_xpm[] = {
"16 16 17 1",
" 	c None",
".	c #F8F8F8",
"+	c #F0E8F0",
"@	c #808080",
"#	c #F8C0F8",
"$	c #7078B0",
"%	c #98A0C8",
"&	c #5878F8",
"*	c #000000",
"=	c #080800",
"-	c #405090",
";	c #F848F8",
">	c #3850F8",
",	c #90A0F0",
"'	c #B0B0B0",
")	c #C8D0E8",
"!	c #C0C0C0",
"..+@+@+@+@+@....",
"..@.........@...",
"..+........#.@..",
"..@...$.%&.*=**.",
"..+..-;..-;#.#*.",
"..@.->->->->..*.",
"..+,;-...-;-.'*.",
"..@.->-.)>->%.*.",
"..+%;-;..-;-.#*.",
"..@.->-.)>->%.*.",
"..+.;-...%;-.!*.",
"..@.)>->->-...*.",
"..+...+%.$...#*.",
"..@...........*.",
"..+#.'.#.'.#.'*.",
"..*************."};
