/* XPM */
static char * 12_xpm[] = {
"16 16 49 1",
" 	c None",
".	c #F8F8F8",
"+	c #F0B080",
"@	c #F0A070",
"#	c #E08858",
"$	c #F85020",
"%	c #502000",
"&	c #301000",
"*	c #401000",
"=	c #803800",
"-	c #804010",
";	c #F86038",
">	c #F8C098",
",	c #A86038",
"'	c #080800",
")	c #280000",
"!	c #F83000",
"~	c #F89060",
"{	c #E8C0A0",
"]	c #B87848",
"^	c #E0C0B0",
"/	c #F0E8F0",
"(	c #6898F8",
"_	c #202028",
":	c #F8C0F8",
"<	c #505858",
"[	c #000010",
"}	c #383848",
"|	c #F84010",
"1	c #90A0F0",
"2	c #304040",
"3	c #F848F8",
"4	c #A0A0A0",
"5	c #E8E0D0",
"6	c #F0D000",
"7	c #A89058",
"8	c #606000",
"9	c #A88038",
"0	c #F8D018",
"a	c #585000",
"b	c #B8A870",
"c	c #F8F870",
"d	c #103800",
"e	c #484000",
"f	c #788838",
"g	c #F85000",
"h	c #C0D0B0",
"i	c #F8D8F8",
"j	c #686830",
".+.@.@.@.@.+....",
"#$%&*&%=-;#@+.>.",
".,'''')'&%!,.~.{",
"{.]'%.^./(_*%$@.",
".{.=!:.<[[[}$%|@",
"..{#-~/}_[_}/;%#",
"...{.~.1_234.@/@",
"....>@+.5./.@@+.",
"..6768.9680868.{",
".8.a..b8..ac..a.",
".8.d.8.e.e6.de..",
".8.e..ba..a.f.e.",
".8.e.eg8.d6.|.e.",
"8.he.e.8..ec..a.",
".ai.gj..gei8ea..",
"................"};
