/* XPM */
static char * 21_xpm[] = {
"16 16 24 1",
" 	c None",
".	c #F8F8F8",
"+	c #803800",
"@	c #F8D8F8",
"#	c #505858",
"$	c #A07000",
"%	c #E0A018",
"&	c #000000",
"*	c #F83000",
"=	c #F8A840",
"-	c #F8F818",
";	c #484000",
">	c #F87000",
",	c #F0A000",
"'	c #A05000",
")	c #606060",
"!	c #F8F800",
"~	c #F848F8",
"{	c #E88000",
"]	c #202018",
"^	c #F8F840",
"/	c #E89000",
"(	c #F84010",
"_	c #404040",
".............+@.",
"...........#$%&.",
"..........*=-;..",
"........#>=,')..",
".......+!=!$~...",
".....#$,=,{]....",
"....*,.=^,!$@...",
"...+,,,^,/,,;...",
"...#($.,!,!+....",
"....]^,/,>#.....",
"..._^,!,(.......",
"..)^,,$)........",
"..^,!+..........",
".&,>#...........",
".#(.............",
"................"};
