/* XPM */
static char * 40_xpm[] = {
"16 16 48 1",
" 	c None",
".	c #F8F8F8",
"+	c #483020",
"@	c #504018",
"#	c #582020",
"$	c #280000",
"%	c #F820F8",
"&	c #F84010",
"*	c #E8D088",
"=	c #F83020",
"-	c #C87848",
";	c #F82800",
">	c #F8C068",
",	c #682800",
"'	c #000000",
")	c #F83000",
"!	c #D87830",
"~	c #886000",
"{	c #A05000",
"]	c #F8F8A0",
"^	c #F8F870",
"/	c #987870",
"(	c #F8D8F8",
"_	c #905820",
":	c #F0E0A0",
"<	c #906018",
"[	c #F83830",
"}	c #606060",
"|	c #F8E090",
"1	c #202018",
"2	c #080800",
"3	c #304040",
"4	c #383848",
"5	c #F838F8",
"6	c #88B8D0",
"7	c #306070",
"8	c #184050",
"9	c #083850",
"0	c #000018",
"a	c #0040F8",
"b	c #407080",
"c	c #1840F8",
"d	c #103040",
"e	c #3850F8",
"f	c #3888A8",
"g	c #1038F8",
"h	c #285060",
"i	c #90B0F0",
"................",
".....+...@#.....",
"....$+%$&*=$....",
"....#.-;>.,$'...",
"...$)!.~.{.,$$..",
"..'+-.]^,.{,/+..",
"..(+._.:.<._[}..",
"...''.:.|.|.1...",
".....'2222345...",
".....46.7890....",
"......abcd0}....",
".......e00}.....",
".......fg0......",
".....h7.9ddd....",
".......i.9g.....",
"................"};
