/* XPM */
static char * 14_xpm[] = {
"16 16 51 1",
" 	c None",
".	c #F8F8F8",
"+	c #F0B080",
"@	c #F0A070",
"#	c #E08858",
"$	c #F85020",
"%	c #502000",
"&	c #401000",
"*	c #301000",
"=	c #682800",
"-	c #804010",
";	c #F86038",
">	c #E8C0A0",
",	c #A86038",
"'	c #080800",
")	c #280000",
"!	c #F83000",
"~	c #F89060",
"{	c #B87848",
"]	c #E0C0B0",
"^	c #F0E8F0",
"/	c #6898F8",
"(	c #202028",
"_	c #803800",
":	c #F8C0F8",
"<	c #404860",
"[	c #000010",
"}	c #383848",
"|	c #F84010",
"1	c #F0F8D8",
"2	c #F8C098",
"3	c #90A0F0",
"4	c #304040",
"5	c #F848F8",
"6	c #A0A0A0",
"7	c #E8E0D0",
"8	c #602060",
"9	c #F818F8",
"0	c #986080",
"a	c #F8D8F8",
"b	c #A06068",
"c	c #F820F8",
"d	c #884850",
"e	c #F838F8",
"f	c #906870",
"g	c #F898F8",
"h	c #400040",
"i	c #A888A8",
"j	c #F800F8",
"k	c #F880F8",
"l	c #C0C0C0",
".+.@.@.@.@.+....",
"#$%&**==-;#@+.>.",
".,'''')'*%!,.~.>",
">.{'%.].^/(&%$@.",
".>._!:.<[[[}|=|@",
"..>#-~1}([(}^;%#",
"...2.~.3(456.@^@",
"....>@+.7.^.@@+.",
".890a8abcde89f.>",
"8..g8.h8.hi...h.",
"c.c.j..h.h1hhhj.",
"8..kh.ig.h.h..h.",
"c.hhc.hl.h.hj.h.",
"8.h.8.h8.hi..gh.",
".hj..hj.jh.hhh..",
"................"};
