/* XPM */
static char * 15_xpm[] = {
"16 16 20 1",
" 	c None",
".	c #F8F8F8",
"+	c #B0B0B0",
"@	c #F8B0F8",
"#	c #C0C0C0",
"$	c #F8C0F8",
"%	c #F0E8F0",
"&	c #D0D0D0",
"*	c #989898",
"=	c #505858",
"-	c #303030",
";	c #A0A0A0",
">	c #808080",
",	c #F848F8",
"'	c #E8E0D0",
")	c #909088",
"!	c #202028",
"~	c #F8D8F8",
"{	c #0000F8",
"]	c #0000A8",
"...+.@.#.@$.....",
"..+.%.%.&.*=....",
"...%.....+.*$...",
"..+.........*-..",
"...%.....;.>,-..",
"..+.......'.)!..",
"...%.......~.-..",
"..+..{.{]{%.#-..",
"...%.].].].%.-..",
"..+..{]{%{'.+-..",
"...%.....%.~.-..",
"..+..{]{'.&.;-..",
"...%.].].~.&.-..",
"..+.%{]{]{#.;-..",
"...$.#.@.+.;.-..",
"...-----------.."};
