/* XPM */
static char * 26_xpm[] = {
"16 16 31 1",
" 	c None",
".	c #F8F8F8",
"+	c #F8C0F8",
"@	c #F0E8F0",
"#	c #606060",
"$	c #808080",
"%	c #303030",
"&	c #000000",
"*	c #280000",
"=	c #C0C0C0",
"-	c #A01818",
";	c #F01818",
">	c #E82020",
",	c #881010",
"'	c #080800",
")	c #A0A0A0",
"!	c #401000",
"~	c #D0D0D0",
"{	c #483020",
"]	c #F80000",
"^	c #681010",
"/	c #707070",
"(	c #101010",
"_	c #F838F8",
":	c #505048",
"<	c #F86870",
"[	c #404040",
"}	c #F848F8",
"|	c #704048",
"1	c #202018",
"2	c #F8D8F8",
".....+@#+$......",
"....%&*&&*&%=...",
"...&&-;;>,;&')..",
"..'&&;,;->>!&&~.",
".{&*];;>;>;,&&%.",
"=&->^!-;>;>>&&&.",
"@&;>;^*&;>>;;!&/",
"#&*;->>;,;>>>;*#",
"+&&(_>>>>;>>>;*#",
"$&&:.<^>>>>;-!&$",
".~.$...[}|_1&&&+",
"........=..[&&%.",
".........2.(.$..",
"..........#.....",
"................",
"................"};
