/* XPM */
static char * 22_xpm[] = {
"16 16 13 1",
" 	c None",
".	c #F8F8F8",
"+	c #F0E8F0",
"@	c #808080",
"#	c #F8C0F8",
"$	c #000000",
"%	c #606060",
"&	c #303030",
"*	c #C0C0C0",
"=	c #404040",
"-	c #F838F8",
";	c #202028",
">	c #B0B0B0",
"..+@+@+@+@+@....",
"..@.........@...",
"..+........#.@..",
"..@........$$$$.",
"..+.......$..#$.",
"..@...%&$&$...$.",
"..+...$...$..*$.",
"..@...$...$...$.",
"..+...$...$..#$.",
"..@...$...$...$.",
"..+...$.&$$..*$.",
"..@...$.$$=...$.",
"..+.-$$......#$.",
"..@.$$;.......$.",
"..+#.>.#.>.#.>$.",
"..$$$$$$$$$$$$$."};
