/* XPM */
static char * 27_xpm[] = {
"16 16 19 1",
" 	c None",
".	c #000000",
"+	c #F8F8F8",
"@	c #989898",
"#	c #F8D8F8",
"$	c #F0E8F0",
"%	c #B0B0B0",
"&	c #606060",
"*	c #C0C0C0",
"=	c #F8B0F8",
"-	c #8898C8",
";	c #0000F8",
">	c #707070",
",	c #0000A8",
"'	c #E8E0D0",
")	c #909088",
"!	c #D0D0D0",
"~	c #A0A0A0",
"{	c #F8C0F8",
".++@+@+@+@#+++++",
"++@+$+$+$+%&++++",
"+++$+++++*+=#+++",
"++@+-;+;++++%+++",
"+++$;+;++@#>#+++",
"++@+,;,;++'+)+++",
"+++$+++++++#++++",
"++@+,;,;++$+*+++",
"+++$;+;++$+$++++",
"++@+,;,;$+'+*+++",
"+++$+++++$+#++++",
"++@+,+++'+!+%+++",
"+++$;,;,+#+!++++",
"++@+,+'+!+!+~+++",
"+++$+*+{+%+~++++",
"++>+++++++++++++"};
