/* XPM */
static char * 43_xpm[] = {
"16 16 8 1",
" 	c None",
".	c #F8F8F8",
"+	c #F880F8",
"@	c #808080",
"#	c #C0C0C0",
"$	c #080800",
"%	c #000010",
"&	c #F8C0F8",
"................",
".+@@@+@@@+@.....",
".@.........@....",
".@..#.#.#.#.@...",
".@........$$%$..",
".+..#.#.#...#$..",
".@.$......$..$..",
".@.%#.#.#.$.#$..",
".@$$$$.$..$..$..",
".+.%#.$.$.$.#$..",
".@.$..$...$..$..",
".@.$#%$.$.$.#$..",
".@..$..$..$..$..",
".+..........#$..",
".@.&.#.&.#.&.$..",
".$$%$$%$$%$$%$.."};
