/* XPM */
static char * 7_xpm[] = {
"16 16 17 1",
" 	c None",
".	c #F8F8F8",
"+	c #F0E8F0",
"@	c #808080",
"#	c #F8C0F8",
"$	c #000000",
"%	c #F8B0F8",
"&	c #606060",
"*	c #505858",
"=	c #989898",
"-	c #F898F8",
";	c #B0B0B0",
">	c #707070",
",	c #E8E0D0",
"'	c #D0D0D0",
")	c #F8D8F8",
"!	c #F8A0F8",
"..+@+@+@+@+@....",
"..@.........@...",
"..+........#.@..",
"..@........$$$$.",
"..+..........%$.",
"..@&*&=..-&.&.$.",
"..+.$.....$++;$.",
"..@.$.*&>.,$'.$.",
"..+.$.$...+)$%$.",
"..@.&.$@.!&.&.$.",
"..+...$......;$.",
"..@...&*@.....$.",
"..+..........%$.",
"..@...........$.",
"..+#.;.#.;.#.;$.",
"..$$$$$$$$$$$$$."};
