/* XPM */
static char * 47_xpm[] = {
"16 16 45 1",
" 	c None",
".	c #F8F8F8",
"+	c #080800",
"@	c #000010",
"#	c #101010",
"$	c #202028",
"%	c #404040",
"&	c #785840",
"*	c #706848",
"=	c #303030",
"-	c #F84010",
";	c #E0A018",
">	c #504018",
",	c #584830",
"'	c #F8F870",
")	c #B8A870",
"!	c #F870F8",
"~	c #000000",
"{	c #F0E8F0",
"]	c #D0D0D0",
"^	c #E8E0D0",
"/	c #505858",
"(	c #989898",
"_	c #202018",
":	c #C0C0C0",
"<	c #F8F800",
"[	c #B08008",
"}	c #F8F818",
"|	c #989070",
"1	c #F85000",
"2	c #403008",
"3	c #F8C000",
"4	c #E89000",
"5	c #707070",
"6	c #906018",
"7	c #F8E800",
"8	c #F0B800",
"9	c #505048",
"0	c #484000",
"a	c #886000",
"b	c #A07000",
"c	c #585000",
"d	c #E88000",
"e	c #301000",
"f	c #F81000",
"......+.@+......",
"........+#......",
"......#+$#+.....",
"......%&*=......",
"......-;.>+.....",
".....+,')!+~....",
"....+$.{.]$.@...",
"....~=^.../+....",
"....#(.....$+...",
"...+_.....:#~...",
"..<[}|....._12..",
"..[}345...;4;46.",
"..78}8.:.9}8<4-.",
"..0ab4c_##bdce..",
"....+e#...fe+...",
"................"};
