/* XPM */
static char * 0_xpm[] = {
"16 16 6 1",
" 	c None",
".	c #F8F8F8",
"+	c #008080",
"@	c #00F0F8",
"#	c #2070F0",
"$	c #1080F0",
"................",
"................",
"................",
"................",
"...+@...........",
"..+++#..........",
".+@+@+@.........",
"...$+...........",
"...+@...........",
"...++...........",
"...+@...........",
"...$+...........",
"...+@+@+........",
"....+$++........",
"................",
"................"};
