/* XPM */
static char * 24_xpm[] = {
"16 16 3 1",
" 	c None",
".	c #F8F8F8",
"+	c #0000F8",
"................",
"................",
"................",
"................",
"................",
"................",
"................",
"................",
".++..+.+...+..+.",
"..+.++.+..++..+.",
"...++..++.++..+.",
"...+...++.++..+.",
"..+.+..+++.+..+.",
".++..+.+.+.+..++",
"................",
"................"};
