/* XPM */
static char * 18_xpm[] = {
"16 16 52 1",
" 	c None",
".	c #F8F8F8",
"+	c #F0B080",
"@	c #F0A070",
"#	c #E08858",
"$	c #F85020",
"%	c #502000",
"&	c #301000",
"*	c #682800",
"=	c #804010",
"-	c #F86038",
";	c #E8C0A0",
">	c #A86038",
",	c #080800",
"'	c #280000",
")	c #F83000",
"!	c #F89060",
"~	c #B87848",
"{	c #C0C0C0",
"]	c #F0E8F0",
"^	c #6898F8",
"/	c #202028",
"(	c #401000",
"_	c #803800",
":	c #F8C0F8",
"<	c #505858",
"[	c #000010",
"}	c #000018",
"|	c #304040",
"1	c #F84010",
"2	c #F0F8D8",
"3	c #383848",
"4	c #90A0F0",
"5	c #202018",
"6	c #184050",
"7	c #F838F8",
"8	c #A0A0A0",
"9	c #F8C098",
"0	c #E8E0D0",
"a	c #A05000",
"b	c #F8C000",
"c	c #D87830",
"d	c #F8D820",
"e	c #F8D018",
"f	c #F8E828",
"g	c #F8F870",
"h	c #F8D0B8",
"i	c #F8D8F8",
"j	c #F82800",
"k	c #F85000",
"l	c #B8A870",
"m	c #F8D040",
".+.@.@.@.@.+....",
"#$%&&&**=-#@+.;.",
".>,,,','&%)>.!.;",
";.~,%.{.]^/(%$@.",
".;._):.<[[}|1%1@",
"..;#=!23/[/3]-%#",
"...;.!.45678.@]@",
"....9@+.0.2.@@9.",
".a]a]abcdae~.af;",
"a.a._..ga._!_._.",
".h.i1.j.j.._..j.",
"[k.%a..._.l.l.%.",
".i.hb.j_b.jh1.j.",
"a.%._.%.a.%_a.%.",
"._i_m_i.._i.._i.",
"................"};
